solid OpenSCAD_Model
  facet normal 1 0 0
    outer loop
      vertex 275 275 475
      vertex 275 225 425
      vertex 275 275 0
    endloop
  endfacet
  facet normal 1 0 0
    outer loop
      vertex 275 275 475
      vertex 275 -225 425
      vertex 275 225 425
    endloop
  endfacet
  facet normal 1 -0 0
    outer loop
      vertex 275 -275 475
      vertex 275 -225 425
      vertex 275 275 475
    endloop
  endfacet
  facet normal 1 0 0
    outer loop
      vertex 275 -275 0
      vertex 275 -225 425
      vertex 275 -275 475
    endloop
  endfacet
  facet normal 1 0 0
    outer loop
      vertex 275 -225 425
      vertex 275 -275 0
      vertex 275 -225 0
    endloop
  endfacet
  facet normal 1 0 0
    outer loop
      vertex 275 275 0
      vertex 275 225 425
      vertex 275 225 0
    endloop
  endfacet
  facet normal -0 0 1
    outer loop
      vertex -275 275 475
      vertex 275 -275 475
      vertex 275 275 475
    endloop
  endfacet
  facet normal 0 0 1
    outer loop
      vertex 275 -275 475
      vertex -275 275 475
      vertex -275 -275 475
    endloop
  endfacet
  facet normal 0 0 -1
    outer loop
      vertex -275 -225 425
      vertex -225 225 425
      vertex -225 -225 425
    endloop
  endfacet
  facet normal -0 0 -1
    outer loop
      vertex -225 225 425
      vertex -275 -225 425
      vertex -275 225 425
    endloop
  endfacet
  facet normal 0 0 -1
    outer loop
      vertex -225 -225 425
      vertex 225 -225 425
      vertex 225 -275 425
    endloop
  endfacet
  facet normal 0 0 -1
    outer loop
      vertex 225 -225 425
      vertex -225 -225 425
      vertex 225 225 425
    endloop
  endfacet
  facet normal 0 0 -1
    outer loop
      vertex -225 -225 425
      vertex 225 -275 425
      vertex -225 -275 425
    endloop
  endfacet
  facet normal 0 0 -1
    outer loop
      vertex -225 225 425
      vertex 225 225 425
      vertex -225 -225 425
    endloop
  endfacet
  facet normal 0 0 -1
    outer loop
      vertex 225 225 425
      vertex -225 225 425
      vertex 225 275 425
    endloop
  endfacet
  facet normal -0 0 -1
    outer loop
      vertex 225 275 425
      vertex -225 225 425
      vertex -225 275 425
    endloop
  endfacet
  facet normal 0 0 -1
    outer loop
      vertex 225 -225 425
      vertex 275 225 425
      vertex 275 -225 425
    endloop
  endfacet
  facet normal -0 0 -1
    outer loop
      vertex 275 225 425
      vertex 225 -225 425
      vertex 225 225 425
    endloop
  endfacet
  facet normal -1 0 0
    outer loop
      vertex -275 -225 0
      vertex -275 -275 0
      vertex -275 -225 425
    endloop
  endfacet
  facet normal -1 0 0
    outer loop
      vertex -275 225 425
      vertex -275 275 0
      vertex -275 225 0
    endloop
  endfacet
  facet normal -1 0 0
    outer loop
      vertex -275 275 0
      vertex -275 225 425
      vertex -275 275 475
    endloop
  endfacet
  facet normal -1 0 0
    outer loop
      vertex -275 -225 425
      vertex -275 275 475
      vertex -275 225 425
    endloop
  endfacet
  facet normal -1 0 0
    outer loop
      vertex -275 -225 425
      vertex -275 -275 475
      vertex -275 275 475
    endloop
  endfacet
  facet normal -1 0 0
    outer loop
      vertex -275 -275 475
      vertex -275 -225 425
      vertex -275 -275 0
    endloop
  endfacet
  facet normal 0 1 0
    outer loop
      vertex 275 275 475
      vertex 225 275 425
      vertex -275 275 475
    endloop
  endfacet
  facet normal 0 1 -0
    outer loop
      vertex 275 275 0
      vertex 225 275 425
      vertex 275 275 475
    endloop
  endfacet
  facet normal 0 1 0
    outer loop
      vertex 225 275 425
      vertex 275 275 0
      vertex 225 275 0
    endloop
  endfacet
  facet normal 0 1 -0
    outer loop
      vertex -225 275 425
      vertex -275 275 475
      vertex 225 275 425
    endloop
  endfacet
  facet normal 0 1 0
    outer loop
      vertex -275 275 0
      vertex -225 275 425
      vertex -225 275 0
    endloop
  endfacet
  facet normal 0 1 0
    outer loop
      vertex -225 275 425
      vertex -275 275 0
      vertex -275 275 475
    endloop
  endfacet
  facet normal 0 -1 0
    outer loop
      vertex -275 -275 475
      vertex -225 -275 425
      vertex 275 -275 475
    endloop
  endfacet
  facet normal 0 -1 0
    outer loop
      vertex -275 -275 0
      vertex -225 -275 425
      vertex -275 -275 475
    endloop
  endfacet
  facet normal 0 -1 -0
    outer loop
      vertex -225 -275 425
      vertex -275 -275 0
      vertex -225 -275 0
    endloop
  endfacet
  facet normal 0 -1 0
    outer loop
      vertex 225 -275 425
      vertex 275 -275 475
      vertex -225 -275 425
    endloop
  endfacet
  facet normal 0 -1 0
    outer loop
      vertex 275 -275 0
      vertex 225 -275 425
      vertex 225 -275 0
    endloop
  endfacet
  facet normal 0 -1 0
    outer loop
      vertex 225 -275 425
      vertex 275 -275 0
      vertex 275 -275 475
    endloop
  endfacet
  facet normal 1 -0 0
    outer loop
      vertex -225 -275 425
      vertex -225 -225 0
      vertex -225 -225 425
    endloop
  endfacet
  facet normal 1 0 0
    outer loop
      vertex -225 -225 0
      vertex -225 -275 425
      vertex -225 -275 0
    endloop
  endfacet
  facet normal 0 0 -1
    outer loop
      vertex -275 -275 0
      vertex -225 -225 0
      vertex -225 -275 0
    endloop
  endfacet
  facet normal -0 0 -1
    outer loop
      vertex -225 -225 0
      vertex -275 -275 0
      vertex -275 -225 0
    endloop
  endfacet
  facet normal 0 1 -0
    outer loop
      vertex -225 -225 0
      vertex -275 -225 425
      vertex -225 -225 425
    endloop
  endfacet
  facet normal 0 1 0
    outer loop
      vertex -275 -225 425
      vertex -225 -225 0
      vertex -275 -225 0
    endloop
  endfacet
  facet normal 0 0 -1
    outer loop
      vertex 225 -275 0
      vertex 275 -225 0
      vertex 275 -275 0
    endloop
  endfacet
  facet normal -0 0 -1
    outer loop
      vertex 275 -225 0
      vertex 225 -275 0
      vertex 225 -225 0
    endloop
  endfacet
  facet normal -1 0 0
    outer loop
      vertex 225 -275 0
      vertex 225 -225 425
      vertex 225 -225 0
    endloop
  endfacet
  facet normal -1 -0 0
    outer loop
      vertex 225 -225 425
      vertex 225 -275 0
      vertex 225 -275 425
    endloop
  endfacet
  facet normal 0 1 -0
    outer loop
      vertex 275 -225 0
      vertex 225 -225 425
      vertex 275 -225 425
    endloop
  endfacet
  facet normal 0 1 0
    outer loop
      vertex 225 -225 425
      vertex 275 -225 0
      vertex 225 -225 0
    endloop
  endfacet
  facet normal 0 0 -1
    outer loop
      vertex 225 225 0
      vertex 275 275 0
      vertex 275 225 0
    endloop
  endfacet
  facet normal -0 0 -1
    outer loop
      vertex 275 275 0
      vertex 225 225 0
      vertex 225 275 0
    endloop
  endfacet
  facet normal -1 0 0
    outer loop
      vertex 225 225 0
      vertex 225 275 425
      vertex 225 275 0
    endloop
  endfacet
  facet normal -1 -0 0
    outer loop
      vertex 225 275 425
      vertex 225 225 0
      vertex 225 225 425
    endloop
  endfacet
  facet normal 0 -1 0
    outer loop
      vertex 225 225 0
      vertex 275 225 425
      vertex 225 225 425
    endloop
  endfacet
  facet normal 0 -1 -0
    outer loop
      vertex 275 225 425
      vertex 225 225 0
      vertex 275 225 0
    endloop
  endfacet
  facet normal 1 -0 0
    outer loop
      vertex -225 225 425
      vertex -225 275 0
      vertex -225 275 425
    endloop
  endfacet
  facet normal 1 0 0
    outer loop
      vertex -225 275 0
      vertex -225 225 425
      vertex -225 225 0
    endloop
  endfacet
  facet normal 0 0 -1
    outer loop
      vertex -275 225 0
      vertex -225 275 0
      vertex -225 225 0
    endloop
  endfacet
  facet normal -0 0 -1
    outer loop
      vertex -225 275 0
      vertex -275 225 0
      vertex -275 275 0
    endloop
  endfacet
  facet normal 0 -1 0
    outer loop
      vertex -275 225 0
      vertex -225 225 425
      vertex -275 225 425
    endloop
  endfacet
  facet normal 0 -1 -0
    outer loop
      vertex -225 225 425
      vertex -275 225 0
      vertex -225 225 0
    endloop
  endfacet
endsolid OpenSCAD_Model
