# Blender v2.74 (sub 0) OBJ File: ''
# www.blender.org
mtllib cube_2_5_red_2.mtl
o Cube.001
v 0.012500 -0.012500 -0.012500
v 0.012500 -0.012500 0.012500
v -0.012500 -0.012500 0.012500
v -0.012500 -0.012500 -0.012500
v 0.012500 0.012500 -0.012500
v -0.012500 0.012500 -0.012500
v -0.012500 0.012500 0.012500
v 0.012500 0.012500 0.012500
vn 0.000000 -1.000000 -0.000000
vn 0.000000 1.000000 0.000000
vn 1.000000 -0.000000 0.000000
vn 0.000000 -0.000000 1.000000
vn -1.000000 0.000000 0.000000
vn 0.000000 0.000000 -1.000000
usemtl Material.001
s 1
f 1//1 2//1 3//1 4//1
f 5//2 6//2 7//2 8//2
f 1//3 5//3 8//3 2//3
f 2//4 8//4 7//4 3//4
f 3//5 7//5 6//5 4//5
f 5//6 1//6 4//6 6//6
