solid OpenSCAD_Model
  facet normal -1 0 0
    outer loop
      vertex -0.0125 -0.0125 0.025
      vertex -0.0125 0.0125 0.025
      vertex -0.0125 -0.0125 1.73472e-18
    endloop
  endfacet
  facet normal -1 0 0
    outer loop
      vertex -0.0125 -0.0125 1.73472e-18
      vertex -0.0125 0.0125 0.025
      vertex -0.0125 0.0125 1.73472e-18
    endloop
  endfacet
  facet normal 0 0 1
    outer loop
      vertex -0.0125 -0.0125 0.025
      vertex 0.0125 -0.0125 0.025
      vertex 0.0125 0.0125 0.025
    endloop
  endfacet
  facet normal 0 0 1
    outer loop
      vertex -0.0125 0.0125 0.025
      vertex -0.0125 -0.0125 0.025
      vertex 0.0125 0.0125 0.025
    endloop
  endfacet
  facet normal 0 -1 0
    outer loop
      vertex -0.0125 -0.0125 1.73472e-18
      vertex 0.0125 -0.0125 1.73472e-18
      vertex 0.0125 -0.0125 0.025
    endloop
  endfacet
  facet normal 0 -1 0
    outer loop
      vertex -0.0125 -0.0125 0.025
      vertex -0.0125 -0.0125 1.73472e-18
      vertex 0.0125 -0.0125 0.025
    endloop
  endfacet
  facet normal 0 0 -1
    outer loop
      vertex -0.0125 0.0125 1.73472e-18
      vertex 0.0125 0.0125 1.73472e-18
      vertex -0.0125 -0.0125 1.73472e-18
    endloop
  endfacet
  facet normal 0 0 -1
    outer loop
      vertex -0.0125 -0.0125 1.73472e-18
      vertex 0.0125 0.0125 1.73472e-18
      vertex 0.0125 -0.0125 1.73472e-18
    endloop
  endfacet
  facet normal 0 1 0
    outer loop
      vertex -0.0125 0.0125 0.025
      vertex 0.0125 0.0125 0.025
      vertex -0.0125 0.0125 1.73472e-18
    endloop
  endfacet
  facet normal 0 1 0
    outer loop
      vertex -0.0125 0.0125 1.73472e-18
      vertex 0.0125 0.0125 0.025
      vertex 0.0125 0.0125 1.73472e-18
    endloop
  endfacet
  facet normal 1 0 0
    outer loop
      vertex 0.0125 -0.0125 1.73472e-18
      vertex 0.0125 0.0125 1.73472e-18
      vertex 0.0125 0.0125 0.025
    endloop
  endfacet
  facet normal 1 0 0
    outer loop
      vertex 0.0125 -0.0125 0.025
      vertex 0.0125 -0.0125 1.73472e-18
      vertex 0.0125 0.0125 0.025
    endloop
  endfacet
endsolid OpenSCAD_Model
